<svg width="270" height="63" viewBox="0 0 270 63" fill="none" xmlns="http://www.w3.org/2000/svg">
<g style="mix-blend-mode:darken" filter="url(#filter0_d)">
<path d="M35.7969 30.707H15.5469V44.418H39.3125V52.8906H5V1.70312H39.2422V10.2461H15.5469V22.4453H35.7969V30.707Z" fill="black" fill-opacity="0.02" shape-rendering="crispEdges"/>
<path d="M64.4141 40.1992L76.0156 1.70312H87.7578L69.9336 52.8906H58.9297L41.1758 1.70312H52.8828L64.4141 40.1992Z" fill="black" fill-opacity="0.02" shape-rendering="crispEdges"/>
<path d="M123.406 30.707H103.156V44.418H126.922V52.8906H92.6094V1.70312H126.852V10.2461H103.156V22.4453H123.406V30.707Z" fill="black" fill-opacity="0.02" shape-rendering="crispEdges"/>
<path d="M174.734 52.8906H164.188L143.656 19.2109V52.8906H133.109V1.70312H143.656L164.223 35.4531V1.70312H174.734V52.8906Z" fill="black" fill-opacity="0.02" shape-rendering="crispEdges"/>
<path d="M221.422 10.2461H205.742V52.8906H195.195V10.2461H179.727V1.70312H221.422V10.2461Z" fill="black" fill-opacity="0.02" shape-rendering="crispEdges"/>
<path d="M253.449 39.4609C253.449 37.4688 252.746 35.9453 251.34 34.8906C249.934 33.8125 247.402 32.6875 243.746 31.5156C240.09 30.3203 237.195 29.1484 235.062 28C229.25 24.8594 226.344 20.6289 226.344 15.3086C226.344 12.543 227.117 10.082 228.664 7.92578C230.234 5.74609 232.473 4.04688 235.379 2.82812C238.309 1.60938 241.59 1 245.223 1C248.879 1 252.137 1.66797 254.996 3.00391C257.855 4.31641 260.07 6.17969 261.641 8.59375C263.234 11.0078 264.031 13.75 264.031 16.8203H253.484C253.484 14.4766 252.746 12.6602 251.27 11.3711C249.793 10.0586 247.719 9.40234 245.047 9.40234C242.469 9.40234 240.465 9.95312 239.035 11.0547C237.605 12.1328 236.891 13.5625 236.891 15.3438C236.891 17.0078 237.723 18.4023 239.387 19.5273C241.074 20.6523 243.547 21.707 246.805 22.6914C252.805 24.4961 257.176 26.7344 259.918 29.4062C262.66 32.0781 264.031 35.4062 264.031 39.3906C264.031 43.8203 262.355 47.3008 259.004 49.832C255.652 52.3398 251.141 53.5938 245.469 53.5938C241.531 53.5938 237.945 52.8789 234.711 51.4492C231.477 49.9961 229.004 48.0156 227.293 45.5078C225.605 43 224.762 40.0938 224.762 36.7891H235.344C235.344 42.4375 238.719 45.2617 245.469 45.2617C247.977 45.2617 249.934 44.7578 251.34 43.75C252.746 42.7188 253.449 41.2891 253.449 39.4609Z" fill="black" fill-opacity="0.02" shape-rendering="crispEdges"/>
<path d="M262.059 8.31973C260.432 5.82004 258.142 3.89782 255.206 2.54991C252.271 1.17914 248.94 0.5 245.223 0.5C241.533 0.5 238.186 1.11901 235.187 2.36648L235.186 2.36703C232.209 3.61516 229.891 5.36695 228.258 7.63351L228.258 7.63433C226.647 9.87928 225.844 12.4431 225.844 15.3086C225.844 20.8597 228.897 25.2369 234.825 28.4399L234.825 28.4402C236.995 29.6084 239.921 30.791 243.591 31.9909L243.593 31.9918C247.244 33.1617 249.703 34.2657 251.036 35.2874L251.04 35.2906C252.302 36.2374 252.949 37.6021 252.949 39.4609C252.949 41.1379 252.316 42.4135 251.046 43.3452C249.756 44.2693 247.916 44.7617 245.469 44.7617C242.151 44.7617 239.756 44.0658 238.196 42.7601C236.653 41.4686 235.844 39.5105 235.844 36.7891V36.2891H235.344H224.762H224.262V36.7891C224.262 40.1835 225.13 43.1889 226.878 45.787L226.88 45.7896C228.651 48.3856 231.202 50.4208 234.506 51.9053L234.509 51.9065C237.814 53.3674 241.47 54.0938 245.469 54.0938C251.211 54.0938 255.839 52.8244 259.303 50.2324L259.305 50.231C262.79 47.5994 264.531 43.9671 264.531 39.3906C264.531 35.2775 263.11 31.8183 260.267 29.0481C257.442 26.2954 252.983 24.0275 246.949 22.2128C243.713 21.2348 241.295 20.1977 239.666 19.1128C238.108 18.0588 237.391 16.8058 237.391 15.3438C237.391 13.7204 238.031 12.4381 239.336 11.4539L239.34 11.4508C240.652 10.4401 242.533 9.90234 245.047 9.90234C247.64 9.90234 249.58 10.5386 250.937 11.7448L250.941 11.7478C252.287 12.9232 252.984 14.59 252.984 16.8203V17.3203H253.484H264.031H264.531V16.8203C264.531 13.659 263.709 10.8203 262.059 8.31973ZM262.059 8.31973C262.059 8.31925 262.058 8.31876 262.058 8.31827L261.641 8.59375L262.06 8.32111C262.059 8.32065 262.059 8.32019 262.059 8.31973ZM35.7969 31.207H36.2969V30.707V22.4453V21.9453H35.7969H16.0469V10.7461H39.2422H39.7422V10.2461V1.70312V1.20312H39.2422H5H4.5V1.70312V52.8906V53.3906H5H39.3125H39.8125V52.8906V44.418V43.918H39.3125H16.0469V31.207H35.7969ZM75.5369 1.55885L64.4155 38.4616L53.3618 1.55965L53.255 1.20312H52.8828H41.1758H40.4731L40.7034 1.86697L58.4573 53.0545L58.5739 53.3906H58.9297H69.9336H70.2889L70.4058 53.055L88.23 1.86755L88.4614 1.20312H87.7578H76.0156H75.6441L75.5369 1.55885ZM123.406 31.207H123.906V30.707V22.4453V21.9453H123.406H103.656V10.7461H126.852H127.352V10.2461V1.70312V1.20312H126.852H92.6094H92.1094V1.70312V52.8906V53.3906H92.6094H126.922H127.422V52.8906V44.418V43.918H126.922H103.656V31.207H123.406ZM174.734 53.3906H175.234V52.8906V1.70312V1.20312H174.734H164.223H163.723V1.70312V33.6718L144.083 1.44294L143.937 1.20312H143.656H133.109H132.609V1.70312V52.8906V53.3906H133.109H143.656H144.156V52.8906V20.9917L163.761 53.1509L163.907 53.3906H164.188H174.734ZM221.422 10.7461H221.922V10.2461V1.70312V1.20312H221.422H179.727H179.227V1.70312V10.2461V10.7461H179.727H194.695V52.8906V53.3906H195.195H205.742H206.242V52.8906V10.7461H221.422ZM264.031 16.3203H264.024C264.029 16.486 264.031 16.6527 264.031 16.8203V16.3203Z" stroke="#FF056E" shape-rendering="crispEdges"/>
</g>
<defs>
<filter id="filter0_d" x="0" y="0" width="269.031" height="62.5938" filterUnits="userSpaceOnUse" color-interpolation-filters="sRGB">
<feFlood flood-opacity="0" result="BackgroundImageFix"/>
<feColorMatrix in="SourceAlpha" type="matrix" values="0 0 0 0 0 0 0 0 0 0 0 0 0 0 0 0 0 0 127 0" result="hardAlpha"/>
<feOffset dy="4"/>
<feGaussianBlur stdDeviation="2"/>
<feComposite in2="hardAlpha" operator="out"/>
<feColorMatrix type="matrix" values="0 0 0 0 0 0 0 0 0 0 0 0 0 0 0 0 0 0 0.25 0"/>
<feBlend mode="normal" in2="BackgroundImageFix" result="effect1_dropShadow"/>
<feBlend mode="normal" in="SourceGraphic" in2="effect1_dropShadow" result="shape"/>
</filter>
</defs>
</svg>
