<svg width="314" height="58" viewBox="0 0 314 58" fill="none" xmlns="http://www.w3.org/2000/svg">
<mask id="path-1-outside-1" maskUnits="userSpaceOnUse" x="0.09375" y="0.4375" width="314" height="58" fill="black">
<rect fill="white" x="0.09375" y="0.4375" width="314" height="58"/>
<path d="M40.5039 40.3555C41.1367 39.8164 41.8047 39.5469 42.5078 39.5469C43.5859 39.5469 44.207 39.6992 44.3711 40.0039C45.2852 41.832 45.7422 44.8555 45.7422 49.0742C45.7422 52.0039 45.4141 54.125 44.7578 55.4375C44.5469 55.8125 44.3242 56 44.0898 56H5.27734C2.48828 56 1.09375 55.168 1.09375 53.5039C1.09375 52.6133 1.28125 51.9336 1.65625 51.4648C2.45312 51.6992 3.22656 51.8164 3.97656 51.8164C4.72656 51.8164 5.37109 51.7578 5.91016 51.6406C6.44922 51.5234 6.95312 51.2773 7.42188 50.9023C8.54688 50.0352 9.10938 48.5703 9.10938 46.5078V10.8945C9.10938 8.85547 8.28906 7.55469 6.64844 6.99219C6.17969 6.82812 5.6875 6.6875 5.17188 6.57031C4.67969 6.42969 4.19922 6.30078 3.73047 6.18359C3.28516 6.04297 2.88672 5.89062 2.53516 5.72656C1.73828 5.30469 1.33984 4.73047 1.33984 4.00391C1.33984 3.04297 1.52734 2.35156 1.90234 1.92969C2.32422 2.04688 2.74609 2.10547 3.16797 2.10547H39.1328C41.2891 2.10547 42.6367 2.30469 43.1758 2.70312C44.1602 3.40625 44.6523 4.95312 44.6523 7.34375C44.6523 9.64062 44.4531 11.5156 44.0547 12.9688C43.6797 14.4219 43.4102 15.2891 43.2461 15.5703C43.0117 15.9922 42.5547 16.2031 41.875 16.2031C40.8906 16.2031 40.2109 16.0859 39.8359 15.8516C39.4844 15.5938 39.2969 15.4062 39.2734 15.2891C38.9688 11.9375 38.4414 9.80469 37.6914 8.89062C36.9414 7.95312 36.0508 7.32031 35.0195 6.99219C34.0117 6.64062 32.6875 6.46484 31.0469 6.46484H23.207C20.7227 6.46484 19.1992 6.71094 18.6367 7.20312C18.0977 7.69531 17.7578 8.26953 17.6172 8.92578C17.4766 9.55859 17.4062 10.3789 17.4062 11.3867V26.3633L19.4805 26.3984C24.6602 26.3984 29.4648 25.9414 33.8945 25.0273C34.2227 25.1914 34.5156 25.6602 34.7734 26.4336C35.0312 27.1836 35.1602 27.9336 35.1602 28.6836C35.1602 29.9492 34.9492 31.0508 34.5273 31.9883C32.9805 32.1289 31.1992 32.1992 29.1836 32.1992C27.168 32.1992 23.2422 31.8711 17.4062 31.2148V47.0703C17.4062 48.8281 17.875 50.0117 18.8125 50.6211C19.6094 51.1367 21.0391 51.3945 23.1016 51.3945L28.4102 51.2539C33.543 51.0664 36.8828 50.3516 38.4297 49.1094C39.2969 48.4062 39.8711 47.4805 40.1523 46.332C40.4336 45.1836 40.5742 44.0352 40.5742 42.8867C40.5742 41.7148 40.5508 40.8711 40.5039 40.3555Z"/>
<path d="M103.082 6.60547C102.59 6.37109 101.91 6.25391 101.043 6.25391C100.176 6.25391 99.5195 6.44141 99.0742 6.81641C98.6523 7.16797 98.2539 7.67188 97.8789 8.32812C97.5039 8.98438 97.1406 9.76953 96.7891 10.6836L82.2695 50.0938C80.6992 54.4766 78.0859 56.668 74.4297 56.668C73.2812 56.668 72.5781 56.3398 72.3203 55.6836L54.9883 11.5625C54.8008 11.0938 54.625 10.5898 54.4609 10.0508C54.2969 9.48828 54.1094 8.94922 53.8984 8.43359C53.3828 7.23828 52.668 6.5 51.7539 6.21875C51.2148 6.03125 50.7344 5.87891 50.3125 5.76172C49.9141 5.62109 49.5859 5.46875 49.3281 5.30469C48.7891 4.95312 48.5195 4.50781 48.5195 3.96875C48.5195 3.125 48.707 2.41016 49.082 1.82422C49.6211 2.01172 50.5469 2.10547 51.8594 2.10547H66.4141C67.9844 2.10547 69.0508 2.21094 69.6133 2.42188C70.6914 2.84375 71.2305 3.64062 71.2305 4.8125C71.2305 5.60938 71.0547 6.20703 70.7031 6.60547C70.1875 6.37109 69.168 6.25391 67.6445 6.25391C64.8789 6.25391 63.4961 7.40234 63.4961 9.69922C63.4961 9.98047 63.5781 10.3906 63.7422 10.9297L64.1641 12.1602C64.2812 12.4648 64.3867 12.7344 64.4805 12.9688L77.1016 47.7031L90.1445 10.4023C90.2852 9.88672 90.3555 9.42969 90.3555 9.03125C90.3555 8.60938 90.2617 8.25781 90.0742 7.97656C89.8867 7.67188 89.6406 7.41406 89.3359 7.20312C89.0078 6.96875 88.4219 6.76953 87.5781 6.60547C86.7344 6.41797 86.0312 6.25391 85.4688 6.11328C84.9297 5.97266 84.4727 5.79688 84.0977 5.58594C83.3477 5.16406 82.9492 4.46094 82.9023 3.47656C82.9023 2.82031 83.0195 2.26953 83.2539 1.82422C83.793 2.01172 84.9531 2.10547 86.7344 2.10547H98.9336C102.074 2.10547 103.645 3.00781 103.645 4.8125C103.645 5.58594 103.457 6.18359 103.082 6.60547Z"/>
<path d="M145.902 40.3555C146.535 39.8164 147.203 39.5469 147.906 39.5469C148.984 39.5469 149.605 39.6992 149.77 40.0039C150.684 41.832 151.141 44.8555 151.141 49.0742C151.141 52.0039 150.812 54.125 150.156 55.4375C149.945 55.8125 149.723 56 149.488 56H110.676C107.887 56 106.492 55.168 106.492 53.5039C106.492 52.6133 106.68 51.9336 107.055 51.4648C107.852 51.6992 108.625 51.8164 109.375 51.8164C110.125 51.8164 110.77 51.7578 111.309 51.6406C111.848 51.5234 112.352 51.2773 112.82 50.9023C113.945 50.0352 114.508 48.5703 114.508 46.5078V10.8945C114.508 8.85547 113.688 7.55469 112.047 6.99219C111.578 6.82812 111.086 6.6875 110.57 6.57031C110.078 6.42969 109.598 6.30078 109.129 6.18359C108.684 6.04297 108.285 5.89062 107.934 5.72656C107.137 5.30469 106.738 4.73047 106.738 4.00391C106.738 3.04297 106.926 2.35156 107.301 1.92969C107.723 2.04688 108.145 2.10547 108.566 2.10547H144.531C146.688 2.10547 148.035 2.30469 148.574 2.70312C149.559 3.40625 150.051 4.95312 150.051 7.34375C150.051 9.64062 149.852 11.5156 149.453 12.9688C149.078 14.4219 148.809 15.2891 148.645 15.5703C148.41 15.9922 147.953 16.2031 147.273 16.2031C146.289 16.2031 145.609 16.0859 145.234 15.8516C144.883 15.5938 144.695 15.4062 144.672 15.2891C144.367 11.9375 143.84 9.80469 143.09 8.89062C142.34 7.95312 141.449 7.32031 140.418 6.99219C139.41 6.64062 138.086 6.46484 136.445 6.46484H128.605C126.121 6.46484 124.598 6.71094 124.035 7.20312C123.496 7.69531 123.156 8.26953 123.016 8.92578C122.875 9.55859 122.805 10.3789 122.805 11.3867V26.3633L124.879 26.3984C130.059 26.3984 134.863 25.9414 139.293 25.0273C139.621 25.1914 139.914 25.6602 140.172 26.4336C140.43 27.1836 140.559 27.9336 140.559 28.6836C140.559 29.9492 140.348 31.0508 139.926 31.9883C138.379 32.1289 136.598 32.1992 134.582 32.1992C132.566 32.1992 128.641 31.8711 122.805 31.2148V47.0703C122.805 48.8281 123.273 50.0117 124.211 50.6211C125.008 51.1367 126.438 51.3945 128.5 51.3945L133.809 51.2539C138.941 51.0664 142.281 50.3516 143.828 49.1094C144.695 48.4062 145.27 47.4805 145.551 46.332C145.832 45.1836 145.973 44.0352 145.973 42.8867C145.973 41.7148 145.949 40.8711 145.902 40.3555Z"/>
<path d="M161.723 56C158.582 56 157.012 55.0977 157.012 53.293C157.012 52.4727 157.199 51.8984 157.574 51.5703C158.254 51.7578 158.957 51.8516 159.684 51.8516C160.434 51.8516 161.078 51.7578 161.617 51.5703C162.18 51.3828 162.672 51.1133 163.094 50.7617C163.938 50.0352 164.359 49.0156 164.359 47.7031V9.41797C164.312 8.48047 164.113 7.77734 163.762 7.30859C163.41 6.83984 162.883 6.51172 162.18 6.32422C161.477 6.11328 160.891 5.96094 160.422 5.86719C159.977 5.77344 159.566 5.65625 159.191 5.51562C158.371 5.16406 157.961 4.73047 157.961 4.21484C157.961 3.13672 158.137 2.375 158.488 1.92969C158.98 2.04688 159.73 2.10547 160.738 2.10547H167.594C169.656 2.10547 171.508 3.14844 173.148 5.23438L202.715 42.7109V9.91016C202.691 8.97266 202.492 8.1875 202.117 7.55469C201.766 6.92188 201.156 6.5 200.289 6.28906C199.445 6.07812 198.695 5.92578 198.039 5.83203C197.383 5.71484 196.797 5.5625 196.281 5.375C195.18 5 194.629 4.39062 194.629 3.54688C194.629 2.84375 194.816 2.30469 195.191 1.92969C195.684 2.04688 196.434 2.10547 197.441 2.10547H211.609C214.75 2.10547 216.32 2.77344 216.32 4.10938C216.32 5.23438 216.145 5.99609 215.793 6.39453C215.207 6.23047 214.527 6.14844 213.754 6.14844C213.004 6.14844 212.348 6.17188 211.785 6.21875C211.223 6.24219 210.719 6.38281 210.273 6.64062C209.289 7.17969 208.773 8.28125 208.727 9.94531V55.0156C208.727 55.6953 208.539 56.1055 208.164 56.2461C207.789 56.4102 207.109 56.4922 206.125 56.4922C204.461 56.4922 202.68 55.2617 200.781 52.8008L170.371 14.5508V48.1953C170.488 50.2109 171.438 51.4531 173.219 51.9219C173.898 52.0625 174.566 52.1797 175.223 52.2734C175.902 52.3672 176.5 52.4844 177.016 52.625C178.211 52.9297 178.809 53.4688 178.809 54.2422C178.809 55.0859 178.633 55.7305 178.281 56.1758C177.789 56.0586 177.039 56 176.031 56H161.723Z"/>
<path d="M258.191 56.2812C257.652 56.0938 256.492 56 254.711 56H234.602C233.383 56 232.398 55.8125 231.648 55.4375C230.922 55.0391 230.559 54.3242 230.559 53.293C230.559 52.5664 230.746 51.9688 231.121 51.5C232.012 51.7344 232.855 51.8516 233.652 51.8516C234.449 51.8516 235.199 51.7695 235.902 51.6055C236.605 51.4414 237.273 51.1484 237.906 50.7266C239.406 49.7656 240.203 48.3008 240.297 46.332V7.23828H235.727C232.328 7.23828 230.102 7.40234 229.047 7.73047C228.016 8.03516 227.23 8.43359 226.691 8.92578C226.176 9.41797 225.754 10.0859 225.426 10.9297C224.84 12.3828 224.383 14.8906 224.055 18.4531C223.539 18.5703 223.07 18.6289 222.648 18.6289C221.711 18.6289 221.113 18.3828 220.855 17.8906C220.598 17.3984 220.422 16.8945 220.328 16.3789C220.234 15.8398 220.164 15.2539 220.117 14.6211C220.023 13.3555 219.977 12.0078 219.977 10.5781C219.977 6.66406 220.281 4.17969 220.891 3.125C221.5 2 222.719 1.4375 224.547 1.4375C224.898 1.4375 225.414 1.47266 226.094 1.54297C226.773 1.61328 227.758 1.69531 229.047 1.78906C232.539 2 236.723 2.10547 241.598 2.10547H247.539C254.336 2.10547 258.883 2 261.18 1.78906C263.477 1.55469 264.906 1.4375 265.469 1.4375C266.031 1.4375 266.547 1.51953 267.016 1.68359C267.484 1.84766 267.859 2.08203 268.141 2.38672C268.586 2.90234 268.809 3.54688 268.809 4.32031C268.809 5.49219 268.773 6.42969 268.703 7.13281C268.633 7.83594 268.551 8.66797 268.457 9.62891C268.387 10.5898 268.281 11.5859 268.141 12.6172C267.812 15.0547 267.402 16.7305 266.91 17.6445C266.441 18.3008 265.867 18.6289 265.188 18.6289C264.531 18.6289 263.945 18.5703 263.43 18.4531L263.465 16.2383C263.465 14.1523 263.348 12.5117 263.113 11.3164C262.879 10.0977 262.387 9.19531 261.637 8.60938C260.887 8 259.809 7.625 258.402 7.48438C256.996 7.32031 255.121 7.23828 252.777 7.23828H248.559V47.7031C248.559 49.3906 249.906 50.5625 252.602 51.2188C253.258 51.3594 253.879 51.4883 254.465 51.6055C255.074 51.7227 255.66 51.8516 256.223 51.9922C256.785 52.1094 257.254 52.2617 257.629 52.4492C258.379 52.8242 258.754 53.457 258.754 54.3477C258.754 55.168 258.566 55.8125 258.191 56.2812Z"/>
<path d="M305.02 16.9414C305.02 11.5742 303.109 8.21094 299.289 6.85156C297.977 6.38281 296.441 6.14844 294.684 6.14844C292.926 6.14844 291.414 6.34766 290.148 6.74609C288.883 7.14453 287.828 7.68359 286.984 8.36328C285.273 9.74609 284.418 11.5742 284.418 13.8477C284.418 17.293 286.949 20.2344 292.012 22.6719L296.406 24.7461C298.539 25.7305 300.59 26.7383 302.559 27.7695C304.551 28.7773 306.309 29.9375 307.832 31.25C311.184 34.1094 312.859 37.6484 312.859 41.8672C312.859 46.3906 310.891 50.0352 306.953 52.8008C303.273 55.3789 298.656 56.668 293.102 56.668C288.695 56.668 284.805 55.9766 281.43 54.5938C278.945 53.6094 277.176 52.2148 276.121 50.4102C275.582 49.4961 275.312 48.3828 275.312 47.0703C275.312 44.4453 275.969 41.9961 277.281 39.7227C277.727 39.1836 278.336 38.9141 279.109 38.9141C280.609 38.9141 281.477 39.3594 281.711 40.25C282.016 44.3047 283.258 47.2578 285.438 49.1094C287.641 50.9609 290.711 51.8867 294.648 51.8867C299.172 51.8867 302.207 50.4102 303.754 47.457C304.293 46.4258 304.562 45.2188 304.562 43.8359C304.562 42.4297 304.188 41.1758 303.438 40.0742C302.688 38.9727 301.691 37.9531 300.449 37.0156C298.551 35.6094 296.031 34.25 292.891 32.9375C289.773 31.625 287.336 30.4766 285.578 29.4922C283.844 28.5078 282.309 27.3594 280.973 26.0469C278.066 23.1875 276.613 19.6602 276.613 15.4648C276.613 11.1758 278.453 7.74219 282.133 5.16406C285.672 2.67969 290.242 1.4375 295.844 1.4375C302.945 1.4375 307.586 2.90234 309.766 5.83203C310.562 6.88672 310.961 8.26953 310.961 9.98047C310.961 11.6914 310.797 13.1797 310.469 14.4453C310.164 15.7109 309.859 16.5312 309.555 16.9062C309.039 17.5391 308.148 17.8555 306.883 17.8555C305.641 17.8555 305.02 17.5508 305.02 16.9414Z"/>
</mask>
<path d="M40.5039 40.3555C41.1367 39.8164 41.8047 39.5469 42.5078 39.5469C43.5859 39.5469 44.207 39.6992 44.3711 40.0039C45.2852 41.832 45.7422 44.8555 45.7422 49.0742C45.7422 52.0039 45.4141 54.125 44.7578 55.4375C44.5469 55.8125 44.3242 56 44.0898 56H5.27734C2.48828 56 1.09375 55.168 1.09375 53.5039C1.09375 52.6133 1.28125 51.9336 1.65625 51.4648C2.45312 51.6992 3.22656 51.8164 3.97656 51.8164C4.72656 51.8164 5.37109 51.7578 5.91016 51.6406C6.44922 51.5234 6.95312 51.2773 7.42188 50.9023C8.54688 50.0352 9.10938 48.5703 9.10938 46.5078V10.8945C9.10938 8.85547 8.28906 7.55469 6.64844 6.99219C6.17969 6.82812 5.6875 6.6875 5.17188 6.57031C4.67969 6.42969 4.19922 6.30078 3.73047 6.18359C3.28516 6.04297 2.88672 5.89062 2.53516 5.72656C1.73828 5.30469 1.33984 4.73047 1.33984 4.00391C1.33984 3.04297 1.52734 2.35156 1.90234 1.92969C2.32422 2.04688 2.74609 2.10547 3.16797 2.10547H39.1328C41.2891 2.10547 42.6367 2.30469 43.1758 2.70312C44.1602 3.40625 44.6523 4.95312 44.6523 7.34375C44.6523 9.64062 44.4531 11.5156 44.0547 12.9688C43.6797 14.4219 43.4102 15.2891 43.2461 15.5703C43.0117 15.9922 42.5547 16.2031 41.875 16.2031C40.8906 16.2031 40.2109 16.0859 39.8359 15.8516C39.4844 15.5938 39.2969 15.4062 39.2734 15.2891C38.9688 11.9375 38.4414 9.80469 37.6914 8.89062C36.9414 7.95312 36.0508 7.32031 35.0195 6.99219C34.0117 6.64062 32.6875 6.46484 31.0469 6.46484H23.207C20.7227 6.46484 19.1992 6.71094 18.6367 7.20312C18.0977 7.69531 17.7578 8.26953 17.6172 8.92578C17.4766 9.55859 17.4062 10.3789 17.4062 11.3867V26.3633L19.4805 26.3984C24.6602 26.3984 29.4648 25.9414 33.8945 25.0273C34.2227 25.1914 34.5156 25.6602 34.7734 26.4336C35.0312 27.1836 35.1602 27.9336 35.1602 28.6836C35.1602 29.9492 34.9492 31.0508 34.5273 31.9883C32.9805 32.1289 31.1992 32.1992 29.1836 32.1992C27.168 32.1992 23.2422 31.8711 17.4062 31.2148V47.0703C17.4062 48.8281 17.875 50.0117 18.8125 50.6211C19.6094 51.1367 21.0391 51.3945 23.1016 51.3945L28.4102 51.2539C33.543 51.0664 36.8828 50.3516 38.4297 49.1094C39.2969 48.4062 39.8711 47.4805 40.1523 46.332C40.4336 45.1836 40.5742 44.0352 40.5742 42.8867C40.5742 41.7148 40.5508 40.8711 40.5039 40.3555Z" stroke="#0276FE" stroke-width="2" mask="url(#path-1-outside-1)"/>
<path d="M103.082 6.60547C102.59 6.37109 101.91 6.25391 101.043 6.25391C100.176 6.25391 99.5195 6.44141 99.0742 6.81641C98.6523 7.16797 98.2539 7.67188 97.8789 8.32812C97.5039 8.98438 97.1406 9.76953 96.7891 10.6836L82.2695 50.0938C80.6992 54.4766 78.0859 56.668 74.4297 56.668C73.2812 56.668 72.5781 56.3398 72.3203 55.6836L54.9883 11.5625C54.8008 11.0938 54.625 10.5898 54.4609 10.0508C54.2969 9.48828 54.1094 8.94922 53.8984 8.43359C53.3828 7.23828 52.668 6.5 51.7539 6.21875C51.2148 6.03125 50.7344 5.87891 50.3125 5.76172C49.9141 5.62109 49.5859 5.46875 49.3281 5.30469C48.7891 4.95312 48.5195 4.50781 48.5195 3.96875C48.5195 3.125 48.707 2.41016 49.082 1.82422C49.6211 2.01172 50.5469 2.10547 51.8594 2.10547H66.4141C67.9844 2.10547 69.0508 2.21094 69.6133 2.42188C70.6914 2.84375 71.2305 3.64062 71.2305 4.8125C71.2305 5.60938 71.0547 6.20703 70.7031 6.60547C70.1875 6.37109 69.168 6.25391 67.6445 6.25391C64.8789 6.25391 63.4961 7.40234 63.4961 9.69922C63.4961 9.98047 63.5781 10.3906 63.7422 10.9297L64.1641 12.1602C64.2812 12.4648 64.3867 12.7344 64.4805 12.9688L77.1016 47.7031L90.1445 10.4023C90.2852 9.88672 90.3555 9.42969 90.3555 9.03125C90.3555 8.60938 90.2617 8.25781 90.0742 7.97656C89.8867 7.67188 89.6406 7.41406 89.3359 7.20312C89.0078 6.96875 88.4219 6.76953 87.5781 6.60547C86.7344 6.41797 86.0312 6.25391 85.4688 6.11328C84.9297 5.97266 84.4727 5.79688 84.0977 5.58594C83.3477 5.16406 82.9492 4.46094 82.9023 3.47656C82.9023 2.82031 83.0195 2.26953 83.2539 1.82422C83.793 2.01172 84.9531 2.10547 86.7344 2.10547H98.9336C102.074 2.10547 103.645 3.00781 103.645 4.8125C103.645 5.58594 103.457 6.18359 103.082 6.60547Z" stroke="#0276FE" stroke-width="2" mask="url(#path-1-outside-1)"/>
<path d="M145.902 40.3555C146.535 39.8164 147.203 39.5469 147.906 39.5469C148.984 39.5469 149.605 39.6992 149.77 40.0039C150.684 41.832 151.141 44.8555 151.141 49.0742C151.141 52.0039 150.812 54.125 150.156 55.4375C149.945 55.8125 149.723 56 149.488 56H110.676C107.887 56 106.492 55.168 106.492 53.5039C106.492 52.6133 106.68 51.9336 107.055 51.4648C107.852 51.6992 108.625 51.8164 109.375 51.8164C110.125 51.8164 110.77 51.7578 111.309 51.6406C111.848 51.5234 112.352 51.2773 112.82 50.9023C113.945 50.0352 114.508 48.5703 114.508 46.5078V10.8945C114.508 8.85547 113.688 7.55469 112.047 6.99219C111.578 6.82812 111.086 6.6875 110.57 6.57031C110.078 6.42969 109.598 6.30078 109.129 6.18359C108.684 6.04297 108.285 5.89062 107.934 5.72656C107.137 5.30469 106.738 4.73047 106.738 4.00391C106.738 3.04297 106.926 2.35156 107.301 1.92969C107.723 2.04688 108.145 2.10547 108.566 2.10547H144.531C146.688 2.10547 148.035 2.30469 148.574 2.70312C149.559 3.40625 150.051 4.95312 150.051 7.34375C150.051 9.64062 149.852 11.5156 149.453 12.9688C149.078 14.4219 148.809 15.2891 148.645 15.5703C148.41 15.9922 147.953 16.2031 147.273 16.2031C146.289 16.2031 145.609 16.0859 145.234 15.8516C144.883 15.5938 144.695 15.4062 144.672 15.2891C144.367 11.9375 143.84 9.80469 143.09 8.89062C142.34 7.95312 141.449 7.32031 140.418 6.99219C139.41 6.64062 138.086 6.46484 136.445 6.46484H128.605C126.121 6.46484 124.598 6.71094 124.035 7.20312C123.496 7.69531 123.156 8.26953 123.016 8.92578C122.875 9.55859 122.805 10.3789 122.805 11.3867V26.3633L124.879 26.3984C130.059 26.3984 134.863 25.9414 139.293 25.0273C139.621 25.1914 139.914 25.6602 140.172 26.4336C140.43 27.1836 140.559 27.9336 140.559 28.6836C140.559 29.9492 140.348 31.0508 139.926 31.9883C138.379 32.1289 136.598 32.1992 134.582 32.1992C132.566 32.1992 128.641 31.8711 122.805 31.2148V47.0703C122.805 48.8281 123.273 50.0117 124.211 50.6211C125.008 51.1367 126.438 51.3945 128.5 51.3945L133.809 51.2539C138.941 51.0664 142.281 50.3516 143.828 49.1094C144.695 48.4062 145.27 47.4805 145.551 46.332C145.832 45.1836 145.973 44.0352 145.973 42.8867C145.973 41.7148 145.949 40.8711 145.902 40.3555Z" stroke="#0276FE" stroke-width="2" mask="url(#path-1-outside-1)"/>
<path d="M161.723 56C158.582 56 157.012 55.0977 157.012 53.293C157.012 52.4727 157.199 51.8984 157.574 51.5703C158.254 51.7578 158.957 51.8516 159.684 51.8516C160.434 51.8516 161.078 51.7578 161.617 51.5703C162.18 51.3828 162.672 51.1133 163.094 50.7617C163.938 50.0352 164.359 49.0156 164.359 47.7031V9.41797C164.312 8.48047 164.113 7.77734 163.762 7.30859C163.41 6.83984 162.883 6.51172 162.18 6.32422C161.477 6.11328 160.891 5.96094 160.422 5.86719C159.977 5.77344 159.566 5.65625 159.191 5.51562C158.371 5.16406 157.961 4.73047 157.961 4.21484C157.961 3.13672 158.137 2.375 158.488 1.92969C158.98 2.04688 159.73 2.10547 160.738 2.10547H167.594C169.656 2.10547 171.508 3.14844 173.148 5.23438L202.715 42.7109V9.91016C202.691 8.97266 202.492 8.1875 202.117 7.55469C201.766 6.92188 201.156 6.5 200.289 6.28906C199.445 6.07812 198.695 5.92578 198.039 5.83203C197.383 5.71484 196.797 5.5625 196.281 5.375C195.18 5 194.629 4.39062 194.629 3.54688C194.629 2.84375 194.816 2.30469 195.191 1.92969C195.684 2.04688 196.434 2.10547 197.441 2.10547H211.609C214.75 2.10547 216.32 2.77344 216.32 4.10938C216.32 5.23438 216.145 5.99609 215.793 6.39453C215.207 6.23047 214.527 6.14844 213.754 6.14844C213.004 6.14844 212.348 6.17188 211.785 6.21875C211.223 6.24219 210.719 6.38281 210.273 6.64062C209.289 7.17969 208.773 8.28125 208.727 9.94531V55.0156C208.727 55.6953 208.539 56.1055 208.164 56.2461C207.789 56.4102 207.109 56.4922 206.125 56.4922C204.461 56.4922 202.68 55.2617 200.781 52.8008L170.371 14.5508V48.1953C170.488 50.2109 171.438 51.4531 173.219 51.9219C173.898 52.0625 174.566 52.1797 175.223 52.2734C175.902 52.3672 176.5 52.4844 177.016 52.625C178.211 52.9297 178.809 53.4688 178.809 54.2422C178.809 55.0859 178.633 55.7305 178.281 56.1758C177.789 56.0586 177.039 56 176.031 56H161.723Z" stroke="#0276FE" stroke-width="2" mask="url(#path-1-outside-1)"/>
<path d="M258.191 56.2812C257.652 56.0938 256.492 56 254.711 56H234.602C233.383 56 232.398 55.8125 231.648 55.4375C230.922 55.0391 230.559 54.3242 230.559 53.293C230.559 52.5664 230.746 51.9688 231.121 51.5C232.012 51.7344 232.855 51.8516 233.652 51.8516C234.449 51.8516 235.199 51.7695 235.902 51.6055C236.605 51.4414 237.273 51.1484 237.906 50.7266C239.406 49.7656 240.203 48.3008 240.297 46.332V7.23828H235.727C232.328 7.23828 230.102 7.40234 229.047 7.73047C228.016 8.03516 227.23 8.43359 226.691 8.92578C226.176 9.41797 225.754 10.0859 225.426 10.9297C224.84 12.3828 224.383 14.8906 224.055 18.4531C223.539 18.5703 223.07 18.6289 222.648 18.6289C221.711 18.6289 221.113 18.3828 220.855 17.8906C220.598 17.3984 220.422 16.8945 220.328 16.3789C220.234 15.8398 220.164 15.2539 220.117 14.6211C220.023 13.3555 219.977 12.0078 219.977 10.5781C219.977 6.66406 220.281 4.17969 220.891 3.125C221.5 2 222.719 1.4375 224.547 1.4375C224.898 1.4375 225.414 1.47266 226.094 1.54297C226.773 1.61328 227.758 1.69531 229.047 1.78906C232.539 2 236.723 2.10547 241.598 2.10547H247.539C254.336 2.10547 258.883 2 261.18 1.78906C263.477 1.55469 264.906 1.4375 265.469 1.4375C266.031 1.4375 266.547 1.51953 267.016 1.68359C267.484 1.84766 267.859 2.08203 268.141 2.38672C268.586 2.90234 268.809 3.54688 268.809 4.32031C268.809 5.49219 268.773 6.42969 268.703 7.13281C268.633 7.83594 268.551 8.66797 268.457 9.62891C268.387 10.5898 268.281 11.5859 268.141 12.6172C267.812 15.0547 267.402 16.7305 266.91 17.6445C266.441 18.3008 265.867 18.6289 265.188 18.6289C264.531 18.6289 263.945 18.5703 263.43 18.4531L263.465 16.2383C263.465 14.1523 263.348 12.5117 263.113 11.3164C262.879 10.0977 262.387 9.19531 261.637 8.60938C260.887 8 259.809 7.625 258.402 7.48438C256.996 7.32031 255.121 7.23828 252.777 7.23828H248.559V47.7031C248.559 49.3906 249.906 50.5625 252.602 51.2188C253.258 51.3594 253.879 51.4883 254.465 51.6055C255.074 51.7227 255.66 51.8516 256.223 51.9922C256.785 52.1094 257.254 52.2617 257.629 52.4492C258.379 52.8242 258.754 53.457 258.754 54.3477C258.754 55.168 258.566 55.8125 258.191 56.2812Z" stroke="#0276FE" stroke-width="2" mask="url(#path-1-outside-1)"/>
<path d="M305.02 16.9414C305.02 11.5742 303.109 8.21094 299.289 6.85156C297.977 6.38281 296.441 6.14844 294.684 6.14844C292.926 6.14844 291.414 6.34766 290.148 6.74609C288.883 7.14453 287.828 7.68359 286.984 8.36328C285.273 9.74609 284.418 11.5742 284.418 13.8477C284.418 17.293 286.949 20.2344 292.012 22.6719L296.406 24.7461C298.539 25.7305 300.59 26.7383 302.559 27.7695C304.551 28.7773 306.309 29.9375 307.832 31.25C311.184 34.1094 312.859 37.6484 312.859 41.8672C312.859 46.3906 310.891 50.0352 306.953 52.8008C303.273 55.3789 298.656 56.668 293.102 56.668C288.695 56.668 284.805 55.9766 281.43 54.5938C278.945 53.6094 277.176 52.2148 276.121 50.4102C275.582 49.4961 275.312 48.3828 275.312 47.0703C275.312 44.4453 275.969 41.9961 277.281 39.7227C277.727 39.1836 278.336 38.9141 279.109 38.9141C280.609 38.9141 281.477 39.3594 281.711 40.25C282.016 44.3047 283.258 47.2578 285.438 49.1094C287.641 50.9609 290.711 51.8867 294.648 51.8867C299.172 51.8867 302.207 50.4102 303.754 47.457C304.293 46.4258 304.562 45.2188 304.562 43.8359C304.562 42.4297 304.188 41.1758 303.438 40.0742C302.688 38.9727 301.691 37.9531 300.449 37.0156C298.551 35.6094 296.031 34.25 292.891 32.9375C289.773 31.625 287.336 30.4766 285.578 29.4922C283.844 28.5078 282.309 27.3594 280.973 26.0469C278.066 23.1875 276.613 19.6602 276.613 15.4648C276.613 11.1758 278.453 7.74219 282.133 5.16406C285.672 2.67969 290.242 1.4375 295.844 1.4375C302.945 1.4375 307.586 2.90234 309.766 5.83203C310.562 6.88672 310.961 8.26953 310.961 9.98047C310.961 11.6914 310.797 13.1797 310.469 14.4453C310.164 15.7109 309.859 16.5312 309.555 16.9062C309.039 17.5391 308.148 17.8555 306.883 17.8555C305.641 17.8555 305.02 17.5508 305.02 16.9414Z" stroke="#0276FE" stroke-width="2" mask="url(#path-1-outside-1)"/>
</svg>
